# xmcd CD database file
#
# Track frame offsets:
#	150
#	13404
#	32452
#	48429
#	64404
#	80453
#	92358
#	111708
#	133231
#	148632
#
# Disc length: 2183 seconds
#
# Revision: 0
# Processed by: cddbd v1.5.2PL0 Copyright (c) Steve Scherf et al.
# Submitted via: CDex 1.70beta3
#
DISCID=8e08850a
DTITLE=Michael Gregory Jackson - Cowboys, Cartoons and Assorted Candy...
DYEAR=1982
DGENRE=Jazz
TTITLE0=Cowboys, Cartoons and Assorted Candy
TTITLE1=American Dream
TTITLE2=Where I Come from
TTITLE3=Steel Your Heart
TTITLE4=Share My Love
TTITLE5=This Life a Road
TTITLE6=The Way We Used to Do
TTITLE7=Closer
TTITLE8=It's Just a Flesh Wound
TTITLE9=Mr. Cool
EXTD=YEAR: 1982
EXTT0=
EXTT1=
EXTT2=
EXTT3=
EXTT4=
EXTT5=
EXTT6=
EXTT7=
EXTT8=
EXTT9=
PLAYORDER=
